<svg width="105" height="20" viewBox="0 0 105 20" fill="none" xmlns="http://www.w3.org/2000/svg">
<path d="M8.10456 17.9928C7.52589 18.8328 6.82589 19.3928 6.00456 19.6728C5.20189 19.9342 4.31522 19.9902 3.34456 19.8408C2.37389 19.7102 1.36589 19.4582 0.320557 19.0848L1.24456 15.8088C1.84189 16.0515 2.42989 16.2288 3.00856 16.3408C3.60589 16.4342 4.12856 16.4435 4.57656 16.3688C5.22989 16.2755 5.63122 15.8462 5.78056 15.0808C5.92989 14.3155 6.00456 13.2982 6.00456 12.0288V0.184846H9.28056V12.0288C9.28056 13.3728 9.19656 14.5395 9.02856 15.5288C8.86056 16.5182 8.55256 17.3395 8.10456 17.9928Z" fill="#231D4F"/>
<path d="M16.1235 19.9248C14.7048 19.8502 13.6315 19.4488 12.9035 18.7208C12.1755 17.9742 11.8115 16.9475 11.8115 15.6408C11.8115 14.6888 12.0542 13.8768 12.5395 13.2048C13.0248 12.5142 13.6688 11.9728 14.4715 11.5808C15.2742 11.1888 16.1608 10.9462 17.1315 10.8528C18.1208 10.7595 19.1195 10.8248 20.1275 11.0488V10.1808C20.1275 9.58351 19.8848 9.15418 19.3995 8.89285C18.9142 8.63151 18.3168 8.51018 17.6075 8.52885C16.9168 8.54751 16.2168 8.68751 15.5075 8.94885C14.8168 9.19151 14.2568 9.54618 13.8275 10.0128L11.9515 7.96885C12.6608 7.27818 13.5008 6.73685 14.4715 6.34485C15.4422 5.95285 16.4408 5.72885 17.4675 5.67285C18.5128 5.61685 19.4928 5.73818 20.4075 6.03685C21.3408 6.33551 22.1062 6.82085 22.7035 7.49285C23.1702 8.01551 23.4315 8.70618 23.4875 9.56485C23.5435 10.4235 23.5715 11.3662 23.5715 12.3928V19.7848H20.1555V18.4968C19.5768 19.0382 18.9328 19.4208 18.2235 19.6448C17.5142 19.8502 16.8142 19.9435 16.1235 19.9248ZM20.0435 15.8368V13.4288C18.1022 13.2795 16.7488 13.4008 15.9835 13.7928C15.2368 14.1848 14.8635 14.7915 14.8635 15.6128C14.8635 16.1355 15.0408 16.5182 15.3955 16.7608C15.7688 16.9848 16.2262 17.0968 16.7675 17.0968C17.3275 17.0782 17.8968 16.9662 18.4755 16.7608C19.0728 16.5368 19.5955 16.2288 20.0435 15.8368Z" fill="#231D4F"/>
<path d="M29.6409 19.5328C28.8196 19.1595 28.1476 18.6182 27.6249 17.9088C27.1023 17.1808 26.7103 16.3502 26.4489 15.4168C26.2063 14.4835 26.0849 13.5222 26.0849 12.5328C26.0849 11.2448 26.3183 10.0782 26.7849 9.03285C27.2516 7.98751 27.9329 7.15685 28.8289 6.54085C29.7436 5.90618 30.8636 5.58885 32.1889 5.58885C32.6183 5.58885 33.1129 5.63551 33.6729 5.72885C34.2516 5.82218 34.7183 5.99951 35.0729 6.26085V0.184846H38.4329V19.7848H35.0729V18.6648C34.7556 19.0382 34.2703 19.3368 33.6169 19.5608C32.9636 19.7662 32.2729 19.8688 31.5449 19.8688C30.8356 19.8875 30.2009 19.7755 29.6409 19.5328ZM35.0729 15.8648V9.42485C34.1023 9.03285 33.1876 8.90218 32.3289 9.03285C31.4889 9.16351 30.7983 9.52751 30.2569 10.1248C29.7343 10.7035 29.4729 11.5062 29.4729 12.5328C29.4729 13.7462 29.7343 14.7075 30.2569 15.4168C30.7796 16.1075 31.4609 16.5088 32.3009 16.6208C33.1596 16.7142 34.0836 16.4622 35.0729 15.8648Z" fill="#231D4F"/>
<path d="M63.9891 5.78485L59.2291 19.7848H55.1411L52.2011 10.3488L49.2891 19.7848H45.2011L40.4131 5.78485H44.1931L47.2171 16.0888L50.4651 5.78485H53.9651L57.2131 16.0608L60.2091 5.78485H63.9891Z" fill="#231D4F"/>
<path d="M69.143 19.9248C67.7244 19.8502 66.651 19.4488 65.923 18.7208C65.195 17.9742 64.831 16.9475 64.831 15.6408C64.831 14.6888 65.0737 13.8768 65.559 13.2048C66.0444 12.5142 66.6884 11.9728 67.491 11.5808C68.2937 11.1888 69.1804 10.9462 70.151 10.8528C71.1404 10.7595 72.139 10.8248 73.147 11.0488V10.1808C73.147 9.58351 72.9044 9.15418 72.419 8.89285C71.9337 8.63151 71.3364 8.51018 70.627 8.52885C69.9364 8.54751 69.2364 8.68751 68.527 8.94885C67.8364 9.19151 67.2764 9.54618 66.847 10.0128L64.971 7.96885C65.6804 7.27818 66.5204 6.73685 67.491 6.34485C68.4617 5.95285 69.4604 5.72885 70.487 5.67285C71.5324 5.61685 72.5124 5.73818 73.427 6.03685C74.3604 6.33551 75.1257 6.82085 75.723 7.49285C76.1897 8.01551 76.451 8.70618 76.507 9.56485C76.563 10.4235 76.591 11.3662 76.591 12.3928V19.7848H73.175V18.4968C72.5964 19.0382 71.9524 19.4208 71.243 19.6448C70.5337 19.8502 69.8337 19.9435 69.143 19.9248ZM73.063 15.8368V13.4288C71.1217 13.2795 69.7684 13.4008 69.003 13.7928C68.2564 14.1848 67.883 14.7915 67.883 15.6128C67.883 16.1355 68.0604 16.5182 68.415 16.7608C68.7884 16.9848 69.2457 17.0968 69.787 17.0968C70.347 17.0782 70.9164 16.9662 71.495 16.7608C72.0924 16.5368 72.615 16.2288 73.063 15.8368Z" fill="#231D4F"/>
<path d="M82.7445 19.7848H79.3845V0.184846H82.7445V19.7848Z" fill="#231D4F"/>
<path d="M87.5808 4.13285C87.0021 4.13285 86.5168 3.93685 86.1248 3.54485C85.7328 3.15285 85.5368 2.66751 85.5368 2.08885C85.5368 1.52885 85.7328 1.05285 86.1248 0.660846C86.5168 0.268846 87.0021 0.0728455 87.5808 0.0728455C88.1408 0.0728455 88.6168 0.268846 89.0088 0.660846C89.4008 1.05285 89.5968 1.52885 89.5968 2.08885C89.5968 2.66751 89.4008 3.15285 89.0088 3.54485C88.6168 3.93685 88.1408 4.13285 87.5808 4.13285ZM89.1208 19.7848H86.0408V5.78485H89.1208V19.7848Z" fill="#231D4F"/>
<path d="M105 19.7848H101.64V11.6088C101.64 10.8435 101.491 10.2742 101.192 9.90085C100.912 9.50885 100.557 9.24751 100.128 9.11685C99.7174 8.98618 99.3161 8.92085 98.9241 8.92085C98.5508 8.92085 98.1121 8.98618 97.6081 9.11685C97.1227 9.24751 96.6934 9.50885 96.3201 9.90085C95.9468 10.2742 95.7601 10.8435 95.7601 11.6088V19.7848H92.4001V5.78485H95.7601V6.79285C96.0774 6.36351 96.5721 6.06485 97.2441 5.89685C97.9161 5.71018 98.5601 5.61685 99.1761 5.61685C100.371 5.61685 101.397 5.86885 102.256 6.37285C103.133 6.87685 103.805 7.57685 104.272 8.47285C104.757 9.36885 105 10.4142 105 11.6088V19.7848Z" fill="#231D4F"/>
</svg>
