<?xml version="1.0" encoding="utf-8"?>
<!-- Generator: Adobe Illustrator 26.0.2, SVG Export Plug-In . SVG Version: 6.00 Build 0)  -->
<svg version="1.1" id="Слой_1" xmlns="http://www.w3.org/2000/svg" xmlns:xlink="http://www.w3.org/1999/xlink" x="0px" y="0px"
	 viewBox="0 0 24 30" style="enable-background:new 0 0 24 30;" xml:space="preserve">
<style type="text/css">
	.st0{fill:#231D4F;}
	.st1{fill:#BB6BD9;}
</style>
<path class="st0" d="M0.7,0v9.4h1.6V1.6h19.4v17.1c0,1.3-0.3,2.5-0.7,3.7c-0.5,1.2-1.2,2.2-2.1,3.1c-0.9,0.9-2,1.6-3.1,2.1
	c-1.2,0.5-2.4,0.7-3.7,0.7c-1.3,0-2.5-0.3-3.7-0.7c-1.2-0.5-2.2-1.2-3.1-2.1c-0.9-0.9-1.6-2-2.1-3.1c-0.5-1.2-0.7-2.4-0.7-3.7v-1.3
	h6.1v1.3c0,1,0.4,1.9,1.1,2.6c0.7,0.7,1.6,1.1,2.6,1.1c1,0,1.9-0.4,2.6-1.1c0.7-0.7,1.1-1.6,1.1-2.6v-11H8.4v1.7H14v9.4
	c0,0.5-0.2,1-0.6,1.4c-0.4,0.4-0.9,0.6-1.4,0.6s-1-0.2-1.4-0.6c-0.4-0.4-0.6-0.9-0.6-1.4v-3H2.3H0.7v3c0,3,1.2,5.9,3.3,8
	c2.1,2.1,5,3.3,8,3.3c3,0,5.9-1.2,8-3.3c2.1-2.1,3.3-5,3.3-8V0H0.7z"/>
<path class="st1" d="M12.2,23.7c-1.3,0-2.6-0.5-3.5-1.5c-0.9-0.9-1.5-2.2-1.5-3.5H5.5c0,1.8,0.7,3.5,2,4.7c1.2,1.2,2.9,2,4.7,2
	c1.8,0,3.5-0.7,4.7-2c1.2-1.2,2-2.9,2-4.7V4.6H3.5v4.7h1.7V6.3h11.9v12.4c0,1.3-0.5,2.6-1.5,3.5C14.8,23.2,13.5,23.7,12.2,23.7z"/>
</svg>
